<?xml version="1.0" encoding="utf-8"?>
<svg version="1.1" xmlns="http://www.w3.org/2000/svg" xmlns:xlink="http://www.w3.org/1999/xlink" preserveAspectRatio="xMidYMid meet" viewBox="67 296 1668 357">
    <style>
        @import url("https://fonts.googleapis.com/css?family=Monoton");
    </style>
    <g data-item-type="text" data-item="Business" id="logo__item--business" class="logo__item">
                <g class="logo__item__inner" transform="translate(454.9921875 559.8333205779394) scale(7.112921283303719 7.112921283303719) rotate(0 0 0)">
                    <text data-part-id="logo__item--business" dy="0" dominant-baseline="auto" alignment-baseline="auto" font-family="Monoton" font-size="32px" fill="#528eeb" letter-spacing="1" font-weight="normal" font-style="normal" data-font-family="Monoton" data-font-weight="normal" data-font-style="normal" data-ttf-url="/builder_assets/fontsttf/font-montserrat-bold-normal.ttf" data-font-filename="monoton-normal-normal">EnvPool</text>
                </g>
            </g><g data-item-type="image" data-item="Image" data-logo-item="" id="logo__item--logo_0" class="logo__item">
    <g class="logo__item__inner" transform="translate(65.33333333333337 292.5) scale(2.4375 2.4375) rotate(0 0 0)">

<g>
    <g>
        <g>
            <path fill="#528eeb" d="M72.7,55.3c-4.2-4.1-9.7-6.6-16.2-7.5c-0.9,0.6-1.8,1.2-2.7,1.9c7.2,0.4,13.2,2.9,17.6,7.1     C71.7,56.2,72.2,55.8,72.7,55.3z" data-part-id="logo__item--logo_0__0"></path>
            <path fill="#528eeb" d="M58.3,53.6c4.5,0.9,8.2,2.8,11.1,5.6c0.4-0.6,0.8-1.1,1.2-1.7c-3.2-3-7.2-5-11.9-6     c-2-0.4-4.1-0.6-6.5-0.6c-0.8,0.7-1.5,1.4-2.3,2.2c0.2,0,0.4,0,0.6,0C53.5,52.9,56.1,53.1,58.3,53.6z" data-part-id="logo__item--logo_0__1"></path>
            <path fill="#528eeb" d="M57.1,56.7c3.5,0.6,7.5,2,10.8,5.2c0.4-0.6,0.7-1.3,1.1-1.9c-3-2.8-6.9-4.6-11.5-5.4     c-2.2-0.4-4.7-0.5-7.8-0.3c-0.3,0-0.6,0-0.9,0c-0.6,0.7-1.2,1.5-1.7,2.2c1-0.1,2-0.1,2.7-0.1C52.7,56.2,55.1,56.3,57.1,56.7z" data-part-id="logo__item--logo_0__2"></path>
            <path fill="#528eeb" d="M55.9,59.7c3.5,0.4,7.5,1.7,10.6,4.9c0.3-0.7,0.6-1.4,1-2c-2.9-2.7-6.7-4.4-11.3-5c-2-0.2-4.3-0.2-7.3,0     c-0.9,0.1-1.8,0.1-2.6,0.2c-0.5,0.7-0.9,1.5-1.3,2.3c1.6-0.1,3.1-0.3,4.1-0.4C51.9,59.5,54.1,59.5,55.9,59.7z" data-part-id="logo__item--logo_0__3"></path>
            <path fill="#528eeb" d="M54.7,62.8c3.6,0.2,7.8,1.4,10.7,4.9c0.2-0.8,0.5-1.5,0.8-2.3c-2.8-2.8-6.6-4.4-11.4-4.8     c-1.8-0.1-3.9,0-6.9,0.3c-1.4,0.1-2.6,0.3-3.7,0.5c-0.4,0.8-0.7,1.5-1,2.3c1.5-0.2,3.1-0.4,4.9-0.7C51,62.8,53.1,62.7,54.7,62.8z     " data-part-id="logo__item--logo_0__4"></path>
            <path fill="#528eeb" d="M53.5,65.9c3.9,0,8.3,1.1,10.9,5.3c0.2-0.9,0.4-1.8,0.7-2.7c-3.3-4-8.2-4.8-11.6-4.7     c-1.7,0-3.8,0.2-6.5,0.7c-1.3,0.2-2.8,0.5-4.3,0.8c-0.2,0.8-0.5,1.5-0.6,2.3c1.6-0.4,3.4-0.7,5.3-1C49.9,66.1,52,65.9,53.5,65.9z     " data-part-id="logo__item--logo_0__5"></path>
            <path fill="#528eeb" d="M61,71.4c1.3,1.2,2.2,2.8,2.7,4.9c0.1-1.4,0.3-2.8,0.6-4.1c-0.5-0.9-1.1-1.7-1.9-2.3     c-3.1-2.9-7.3-3.2-10.2-3c-2.7,0.2-6.6,1-10.4,2.1c-0.2,0.8-0.3,1.6-0.4,2.3c4-1.2,8.2-2.1,11-2.3C54.9,68.8,58.4,69.1,61,71.4z" data-part-id="logo__item--logo_0__6"></path>
            <path fill="#528eeb" d="M92.9,49.7c-0.9-0.7-1.8-1.3-2.7-1.9C75.8,49.7,66.4,60,64.6,76c0.6,0.2,1.3,0.4,2.1,0.6     C68.3,60.4,77.8,50.5,92.9,49.7z" data-part-id="logo__item--logo_0__7"></path>
            <path fill="#528eeb" d="M70.4,71.3c2.4-9.6,8.6-15.7,17.9-17.7c2.3-0.5,4.8-0.7,7.7-0.6c0.2,0,0.4,0,0.6,0     c-0.7-0.8-1.5-1.5-2.3-2.2c-2.3,0-4.5,0.2-6.5,0.6c-10,2.1-16.9,8.9-19.5,19.3c-0.5,1.9-0.8,3.9-1.1,5.9c0.7,0.1,1.4,0.2,2.1,0.3     C69.6,75,70,73.1,70.4,71.3z" data-part-id="logo__item--logo_0__8"></path>
            <path fill="#528eeb" d="M72.8,73.2c2.4-11.7,10.4-15.5,16.7-16.5c2-0.3,4.4-0.4,7.3-0.3c0.8,0,1.7,0.1,2.7,0.1     c-0.5-0.8-1.1-1.5-1.7-2.2c-0.3,0-0.6,0-0.9,0c-3.1-0.1-5.6-0.1-7.8,0.3c-9.8,1.7-16.3,8.1-18.4,18.2c-0.3,1.4-0.5,2.8-0.7,4.3     c0.7,0.1,1.4,0.1,2.1,0.1C72.4,75.8,72.6,74.5,72.8,73.2z" data-part-id="logo__item--logo_0__9"></path>
            <path fill="#528eeb" d="M75,77.1c0.1-0.7,0.2-1.3,0.3-2c1.8-11.4,9.4-14.6,15.5-15.4c1.8-0.2,4-0.2,6.9,0c1,0.1,2.5,0.2,4.1,0.4     c-0.4-0.8-0.9-1.5-1.3-2.3c-0.8-0.1-1.7-0.1-2.6-0.2c-3-0.2-5.4-0.2-7.3,0c-9.6,1.2-15.8,7.3-17.3,17.2c-0.1,0.8-0.2,1.6-0.3,2.4     C73.5,77.2,74.2,77.2,75,77.1z" data-part-id="logo__item--logo_0__10"></path>
            <path fill="#528eeb" d="M91.9,62.8c1.6-0.1,3.7,0,6.5,0.3c1.8,0.2,3.5,0.4,4.9,0.7c-0.3-0.8-0.6-1.5-1-2.3     c-1.2-0.1-2.4-0.3-3.7-0.5c-3-0.3-5.2-0.5-6.9-0.3c-9.4,0.6-15.2,6.4-16.3,16.1c0,0.1,0,0.2,0,0.3c0.7,0,1.5-0.1,2.2-0.2     C78.9,66,86.1,63.2,91.9,62.8z" data-part-id="logo__item--logo_0__11"></path>
            <path fill="#528eeb" d="M93.1,65.9c1.6,0,3.6,0.2,6.2,0.6c1.9,0.3,3.7,0.7,5.3,1c-0.2-0.8-0.4-1.6-0.7-2.3     c-1.5-0.3-3-0.6-4.3-0.8c-2.7-0.4-4.8-0.7-6.5-0.7c-5.1,0-13.4,1.8-15,13.1c0.8-0.1,1.5-0.2,2.2-0.4     C81.8,67.8,87.9,65.9,93.1,65.9z" data-part-id="logo__item--logo_0__12"></path>
            <path fill="#528eeb" d="M104.9,69c-3.8-1.1-7.8-1.9-10.4-2.1c-3-0.2-7.2,0.1-10.2,3c-1.7,1.6-2.9,3.8-3.4,6.5     c0.9-0.2,1.8-0.5,2.4-0.8c0.5-1.7,1.3-3.1,2.5-4.1c2.5-2.3,6.1-2.6,8.6-2.4c2.7,0.2,7,1.1,11,2.3C105.1,70.5,105,69.7,104.9,69z" data-part-id="logo__item--logo_0__13"></path>
            <path fill="#528eeb" d="M64.2,106c0.7,0.2,1.4,0.4,2.1,0.6V82.8c-0.7-0.1-1.5-0.3-2.1-0.5V106z" data-part-id="logo__item--logo_0__14"></path>
            <path fill="#528eeb" d="M66.9,83.3v23.3c0.7,0.1,1.4,0.3,2.1,0.4V83.3c0,0,0-0.1,0-0.1c-0.7-0.1-1.4-0.2-2.1-0.3     C66.9,83,66.9,83.2,66.9,83.3z" data-part-id="logo__item--logo_0__15"></path>
            <path fill="#528eeb" d="M69.6,84.8v22.3c0.7,0.1,1.4,0.1,2.1,0.2V84.8c0-0.5,0-0.9,0-1.3c-0.7,0-1.4-0.1-2.1-0.2     C69.6,83.8,69.6,84.3,69.6,84.8z" data-part-id="logo__item--logo_0__16"></path>
            <path fill="#528eeb" d="M72.3,83.4c0,0.9-0.1,1.8-0.1,2.8v21.1c0.4,0,0.7,0,1.1,0c0.4,0,0.7,0,1.1,0V86.2c0-0.9,0-1.8,0.1-2.8     C73.7,83.4,73,83.4,72.3,83.4z" data-part-id="logo__item--logo_0__17"></path>
            <path fill="#528eeb" d="M74.9,87.6v19.7c0.7,0,1.4-0.1,2.1-0.2V87.6c0-1.4,0-2.9,0.1-4.4c-0.7,0.1-1.4,0.1-2.1,0.2     C75,84.8,74.9,86.2,74.9,87.6z" data-part-id="logo__item--logo_0__18"></path>
            <path fill="#528eeb" d="M77.6,89v18c0.7-0.1,1.4-0.2,2.1-0.4V89l0.2-6.2c-0.7,0.1-1.4,0.3-2.1,0.3L77.6,89z" data-part-id="logo__item--logo_0__19"></path>
            <path fill="#528eeb" d="M80.3,106.5c0.7-0.2,1.4-0.3,2.1-0.6V82.2c-0.7,0.2-1.4,0.4-2.1,0.5V106.5z" data-part-id="logo__item--logo_0__20"></path>
            <path fill="#528eeb" d="M62.8,76.8c0.2,1,0.4,2.2,0.4,3.4c5.4,2.2,14.9,2.2,20.3,0c0-1.2,0.2-2.4,0.4-3.4     C79,79.2,67.7,79.3,62.8,76.8z" data-part-id="logo__item--logo_0__21"></path>
        </g>
    </g>
    <g>
        <path fill="#528eeb" d="M102.1,44c0.4,0.3,0.8,0.7,1.1,1c0.3-2,0.5-4,0.5-6.2c0-5.1-0.9-9.9-2.4-14.3c-0.9,0.2-1.8,0.4-2.7,0.6    c2.3,5,3.6,10.8,3.6,17C102.2,42.8,102.2,43.4,102.1,44z" data-part-id="logo__item--logo_0__22"></path>
        <path fill="#528eeb" d="M45.5,43.2c1.9-1.6,3.9-3,6-4.3c0.5-6.2,2.2-11.9,4.9-16.6c-2.3-0.9-4.7-1.5-7-1.8    c-2.6,5.4-4.1,11.7-4.1,18.4C45.2,40.3,45.3,41.8,45.5,43.2z" data-part-id="logo__item--logo_0__23"></path>
        <path fill="#528eeb" d="M76.8,8.8c7.1,0,13.6,3.9,18.2,10.1c1.1-0.4,2.2-0.7,3.3-1C93,8.8,84.3,2.8,74.5,2.8    c-9.6,0-18.2,5.8-23.5,14.6c2.3,0.6,4.6,1.5,6.9,2.5C62.5,13.1,69.2,8.8,76.8,8.8z" data-part-id="logo__item--logo_0__24"></path>
        <path fill="#41b3c5" d="M116.1,72.5c0,0.5,0.1,1.1,0.1,1.6c1.5-1.1,2.9-2.4,4.3-3.8c3.6-3.6,6.4-7.6,8.4-11.8    c-0.8-0.5-1.5-1-2.4-1.5c-1.9,5.1-5.1,10.2-9.5,14.6C116.7,72,116.4,72.2,116.1,72.5z" data-part-id="logo__item--logo_0__25"></path>
        <path fill="#41b3c5" d="M79,29c-1.3,1.2-2.4,2.6-3.4,3.9c2.5,0.1,4.9,0.5,7.3,1c4.8-4.3,10.3-7.2,15.7-8.7    c0.9-0.2,1.8-0.5,2.7-0.6c8.1-1.5,15.9,0.2,21.2,5.5c5,5,6.9,12.3,5.7,20c1,0.5,2.1,1.1,3,1.6c2.7-10.2,0.8-20.6-6.1-27.5    c-6.8-6.8-16.9-8.8-27-6.3c-1.1,0.3-2.2,0.6-3.3,1C89.3,20.9,83.8,24.3,79,29z" data-part-id="logo__item--logo_0__26"></path>
        <path fill="#528eeb" d="M146,75.2c0-9.6-5.8-18.2-14.7-23.5c-1-0.6-2-1.1-3-1.6c-5.4-2.6-11.7-4.1-18.4-4.1    c-1.8,0-3.6,0.1-5.4,0.4c1.7,1.8,3.3,3.7,4.6,5.8c6.5,0.4,12.4,2.2,17.3,5c0.8,0.5,1.6,1,2.4,1.5c6.8,4.7,11.1,11.4,11.1,18.9    c0,7.1-3.9,13.6-10.1,18.2c0.4,1.1,0.7,2.2,1,3.3C140,93.7,146,85.1,146,75.2z" data-part-id="logo__item--logo_0__27"></path>
        <path fill="#528eeb" d="M106.4,103c-0.4,0.4-0.8,0.8-1.1,1.3c1.5,0.2,3.1,0.3,4.7,0.3c5.1,0,9.9-0.9,14.3-2.4    c-0.2-0.9-0.4-1.8-0.6-2.7c-5,2.3-10.8,3.6-17,3.6C106.5,103,106.4,103,106.4,103z" data-part-id="logo__item--logo_0__28"></path>
        <path fill="#41b3c5" d="M119.8,79.8c-1.2-1.2-2.4-2.2-3.6-3.2c-0.1,2.6-0.3,5.1-0.8,7.6c4,4.7,6.8,10,8.2,15.2    c0.3,0.9,0.5,1.8,0.6,2.7c1.5,8.1-0.2,15.9-5.5,21.2c-5,5.1-12.3,6.9-20,5.8c-0.5,1-1.1,2.1-1.6,3c10.2,2.7,20.6,0.9,27.6-6.1    c6.8-6.8,8.8-16.9,6.3-27c-0.3-1.1-0.6-2.2-1-3.3C127.9,90.1,124.5,84.6,119.8,79.8z" data-part-id="logo__item--logo_0__29"></path>
        <path fill="#41b3c5" d="M75.9,118.4c0.8,0.9,1.6,1.9,2.5,2.8c3.6,3.6,7.6,6.4,11.8,8.4c0.5-0.8,1-1.5,1.5-2.4    c-4.9-1.8-9.7-4.8-14-8.9C77.1,118.4,76.5,118.4,75.9,118.4z" data-part-id="logo__item--logo_0__30"></path>
        <path fill="#528eeb" d="M102.8,110.7c0-1.3-0.1-2.5-0.2-3.8c-1.9,1.8-4,3.4-6.2,4.8c-0.6,5.8-2.3,11.1-4.8,15.5    c-0.5,0.8-1,1.6-1.5,2.4c-4.7,6.8-11.4,11.1-18.9,11.1c-7.1,0-13.6-3.9-18.2-10.1c-1.1,0.4-2.2,0.7-3.3,1    c5.3,9.2,14,15.2,23.8,15.2c9.6,0,18.2-5.8,23.5-14.7c0.6-1,1.1-2,1.6-3C101.3,123.7,102.8,117.4,102.8,110.7z" data-part-id="logo__item--logo_0__31"></path>
        <path fill="#528eeb" d="M44.5,107.3c-0.1,1.1-0.2,2.3-0.2,3.4c0,5.1,0.9,9.9,2.4,14.3c0.9-0.2,1.8-0.4,2.7-0.6    c-2.1-4.7-3.4-10.1-3.5-15.8C45.4,108.1,44.9,107.7,44.5,107.3z" data-part-id="logo__item--logo_0__32"></path>
        <path fill="#41b3c5" d="M30.6,76.5c-1,0.8-2,1.7-3,2.6c-3.6,3.6-6.4,7.6-8.4,11.8c0.8,0.5,1.6,1,2.4,1.5c1.9-5,4.9-9.8,9.1-14.1    C30.6,77.7,30.6,77.1,30.6,76.5z" data-part-id="logo__item--logo_0__33"></path>
        <path fill="#41b3c5" d="M69,120.5c0.7-0.7,1.3-1.4,2-2.1c-2.7-0.2-5.3-0.5-7.8-1.2c-4.3,3.4-9.1,5.8-13.8,7.1    c-0.9,0.3-1.8,0.5-2.7,0.6c-8.1,1.5-15.9-0.2-21.2-5.5c-5.1-5-6.9-12.3-5.8-20c-1.1-0.5-2.1-1.1-3-1.6    c-2.7,10.2-0.9,20.6,6.1,27.6c6.8,6.8,16.9,8.8,27,6.3c1.1-0.3,2.2-0.6,3.3-1C58.7,128.6,64.2,125.3,69,120.5z" data-part-id="logo__item--logo_0__34"></path>
        <path fill="#528eeb" d="M41.9,46.6c0.4-0.4,0.7-0.9,1.1-1.2c-1.6-0.2-3.3-0.3-5-0.3c-5.1,0-9.9,0.9-14.3,2.4    c0.2,0.9,0.4,1.8,0.6,2.7c5-2.3,10.8-3.6,17-3.6C41.6,46.6,41.8,46.6,41.9,46.6z" data-part-id="logo__item--logo_0__35"></path>
        <path fill="#528eeb" d="M38.1,103.6c0.9,0,1.8,0,2.7-0.1c-1.7-2-3.1-4.1-4.5-6.3c-5.5-0.6-10.5-2.3-14.8-4.7    c-0.8-0.5-1.6-1-2.4-1.5C12.4,86.3,8.1,79.5,8.1,72c0-7.1,3.9-13.6,10.1-18.2c-0.4-1.1-0.7-2.2-1-3.3C8,55.8,2,64.5,2,74.3    c0,9.6,5.8,18.2,14.7,23.5c1,0.6,2,1.1,3,1.6C25.1,102,31.4,103.6,38.1,103.6z" data-part-id="logo__item--logo_0__36"></path>
        <path fill="#41b3c5" d="M28.3,69.7c0.8,0.8,1.6,1.5,2.4,2.3c0.2-2.5,0.7-5,1.3-7.4c-3.7-4.5-6.2-9.5-7.6-14.4    c-0.3-0.9-0.5-1.8-0.6-2.7c-1.5-8.1,0.2-15.9,5.5-21.2c5-5.1,12.3-6.9,20-5.7c2.3,0.3,4.7,1,7,1.8c5.1,1.9,10.2,5.1,14.6,9.5    c0.3,0.3,0.6,0.7,1,1.1c0.5,0,1-0.1,1.4-0.1c0.1,0,0.1,0,0.2,0c-1.2-1.6-2.5-3-3.9-4.5c-3.6-3.6-7.6-6.4-11.8-8.4    c-2.3-1.1-4.5-1.9-6.9-2.5c-10.2-2.7-20.6-0.8-27.6,6.1c-6.8,6.8-8.8,16.9-6.2,27c0.3,1.1,0.6,2.2,1,3.3    C20.1,59.5,23.5,65,28.3,69.7z" data-part-id="logo__item--logo_0__37"></path>
    </g>
    <g>
        <path fill="#528eeb" d="M34.3,75.7c0-21.6,17.5-39.1,39.1-39.1l0,0c21.6,0,39.1,17.5,39.1,39.1l0,0c0,21.6-17.5,39.1-39.1,39.1    l0,0C51.8,114.8,34.3,97.3,34.3,75.7L34.3,75.7z M36.3,75.7c0,20.5,16.6,37,37.1,37.1l0,0c20.5,0,37-16.6,37.1-37.1l0,0    c0-20.5-16.6-37-37.1-37.1l0,0C52.9,38.6,36.3,55.2,36.3,75.7L36.3,75.7L36.3,75.7z" data-part-id="logo__item--logo_0__38"></path>
    </g>
    <g>
        <path fill="#41b3c5" d="M38.8,75.7c0-19.1,15.5-34.5,34.5-34.5l0,0c19.1,0,34.5,15.5,34.5,34.5l0,0c0,19.1-15.5,34.5-34.5,34.5    l0,0C54.3,110.2,38.8,94.7,38.8,75.7L38.8,75.7z M39.9,75.7c0,18.5,15,33.5,33.5,33.5l0,0c18.5,0,33.5-15,33.5-33.5l0,0    c0-18.5-15-33.5-33.5-33.5l0,0C54.9,42.2,39.9,57.1,39.9,75.7L39.9,75.7L39.9,75.7z" data-part-id="logo__item--logo_0__39"></path>
    </g>
</g>

    </g>
</g></svg>
